<svg width="109" height="17" viewBox="0 0 109 17" fill="none" xmlns="http://www.w3.org/2000/svg">
<g id="TONTools">
<path d="M0 3.96667V1.36H13.3458V3.96667H8.27438V16.7733H5.0714V3.96667H0Z" fill="#009CF1"/>
<path d="M29.0502 7.43467V10.676C29.0502 12.6404 28.4719 14.1893 27.3153 15.3227C26.1586 16.4409 24.4682 17 22.2439 17C20.0018 17 18.3024 16.4409 17.1458 15.3227C16.0069 14.1893 15.4375 12.6404 15.4375 10.676V7.43467C15.4375 5.47022 16.0069 3.92889 17.1458 2.81067C18.3024 1.69244 20.0018 1.13333 22.2439 1.13333C24.4682 1.13333 26.1586 1.69244 27.3153 2.81067C28.4719 3.92889 29.0502 5.47022 29.0502 7.43467ZM25.7672 7.43467C25.7672 6.19556 25.4824 5.26622 24.913 4.64667C24.3436 4.012 23.4539 3.69467 22.2439 3.69467C21.0339 3.69467 20.1441 4.012 19.5747 4.64667C19.0053 5.26622 18.7206 6.19556 18.7206 7.43467V10.676C18.7206 11.9151 19.0053 12.852 19.5747 13.4867C20.1441 14.1213 21.0339 14.4387 22.2439 14.4387C23.4539 14.4387 24.3436 14.1213 24.913 13.4867C25.4824 12.852 25.7672 11.9151 25.7672 10.676V7.43467Z" fill="#009CF1"/>
<path d="M33.2848 16.7733V1.36H36.2209C37.6266 2.91644 38.9612 4.56356 40.2246 6.30133C41.488 8.024 42.6357 9.79956 43.6678 11.628L43.4276 7.02667V1.36H46.4971V16.7733H43.561C42.4222 14.8693 41.2389 12.9578 40.0111 11.0387C38.8011 9.10444 37.511 7.28356 36.1408 5.576L36.3543 10.88V16.7733H33.2848Z" fill="#009CF1"/>
<path d="M49.3429 3.96667V1.36H62.6887V3.96667H57.6173V16.7733H54.4143V3.96667H49.3429Z" fill="#009CF1"/>
<path d="M74.6411 10.336V11.696C74.6411 13.2978 74.125 14.5822 73.093 15.5493C72.0609 16.5164 70.6018 17 68.7155 17C66.8293 17 65.3702 16.5164 64.3381 15.5493C63.3061 14.5822 62.79 13.2978 62.79 11.696V10.336C62.79 8.73422 63.2972 7.45733 64.3114 6.50533C65.3435 5.53822 66.8116 5.05467 68.7155 5.05467C70.6195 5.05467 72.0787 5.53822 73.093 6.50533C74.125 7.45733 74.6411 8.73422 74.6411 10.336ZM71.4915 10.336C71.4915 9.41422 71.2512 8.69644 70.7708 8.18267C70.2904 7.65378 69.6053 7.38933 68.7155 7.38933C67.8258 7.38933 67.1407 7.65378 66.6603 8.18267C66.1798 8.69644 65.9396 9.41422 65.9396 10.336V11.696C65.9396 12.6178 66.1798 13.3431 66.6603 13.872C67.1407 14.4009 67.8258 14.6653 68.7155 14.6653C69.6053 14.6653 70.2904 14.4009 70.7708 13.872C71.2512 13.3431 71.4915 12.6178 71.4915 11.696V10.336Z" fill="#009CF1"/>
<path d="M89.1598 10.336V11.696C89.1598 13.2978 88.6438 14.5822 87.6117 15.5493C86.5796 16.5164 85.1205 17 83.2343 17C81.3481 17 79.889 16.5164 78.8569 15.5493C77.8248 14.5822 77.3088 13.2978 77.3088 11.696V10.336C77.3088 8.73422 77.8159 7.45733 78.8302 6.50533C79.8623 5.53822 81.3303 5.05467 83.2343 5.05467C85.1383 5.05467 86.5974 5.53822 87.6117 6.50533C88.6438 7.45733 89.1598 8.73422 89.1598 10.336ZM86.0102 10.336C86.0102 9.41422 85.77 8.69644 85.2896 8.18267C84.8091 7.65378 84.124 7.38933 83.2343 7.38933C82.3446 7.38933 81.6595 7.65378 81.1791 8.18267C80.6986 8.69644 80.4584 9.41422 80.4584 10.336V11.696C80.4584 12.6178 80.6986 13.3431 81.1791 13.872C81.6595 14.4009 82.3446 14.6653 83.2343 14.6653C84.124 14.6653 84.8091 14.4009 85.2896 13.872C85.77 13.3431 86.0102 12.6178 86.0102 11.696V10.336Z" fill="#009CF1"/>
<path d="M92.5215 13.532V0H95.591V13.532C95.591 13.7587 95.6533 13.9778 95.7779 14.1893C95.9202 14.3858 96.1871 14.484 96.5786 14.484H97.0057V16.8867H96.2583C95.244 16.8867 94.47 16.7204 93.9361 16.388C93.4023 16.0556 93.0286 15.6324 92.8151 15.1187C92.6194 14.6049 92.5215 14.076 92.5215 13.532Z" fill="#009CF1"/>
<path d="M103.768 14.7333C104.427 14.7333 104.97 14.6427 105.397 14.4613C105.824 14.2649 106.037 13.9778 106.037 13.6C106.037 13.2676 105.895 13.0107 105.61 12.8293C105.343 12.6329 104.854 12.4591 104.142 12.308L102.621 11.968C101.446 11.7111 100.574 11.2804 100.005 10.676C99.4533 10.0716 99.1775 9.35378 99.1775 8.52267C99.1775 7.54044 99.5779 6.71689 100.379 6.052C101.179 5.38711 102.416 5.05467 104.089 5.05467C104.765 5.05467 105.477 5.12267 106.224 5.25867C106.971 5.39467 107.754 5.61378 108.573 5.916L107.692 8.13733C106.945 7.83511 106.269 7.62356 105.664 7.50267C105.059 7.38178 104.525 7.32133 104.062 7.32133C102.799 7.32133 102.167 7.684 102.167 8.40933C102.167 8.69644 102.274 8.92311 102.487 9.08933C102.719 9.25556 103.137 9.40667 103.742 9.54267L105.263 9.88267C106.562 10.1698 107.505 10.608 108.092 11.1973C108.697 11.7867 109 12.5271 109 13.4187C109 14.4764 108.573 15.3378 107.719 16.0027C106.882 16.6676 105.557 17 103.742 17C102.194 17 100.565 16.6978 98.8572 16.0933L99.6846 13.94C100.521 14.2271 101.277 14.4311 101.953 14.552C102.63 14.6729 103.235 14.7333 103.768 14.7333Z" fill="#009CF1"/>
</g>
</svg>
